HIERARCHY
ROOT Hips
{
	OFFSET	0.00	0.00	0.00
	CHANNELS 6 Xposition Yposition Zposition Zrotation Xrotation Yrotation
	JOINT LeftUpLeg
	{
		OFFSET	 0.126116	-0.014019	-0.065224
		CHANNELS 3 Zrotation Xrotation Yrotation
		JOINT LeftLeg
		{
			OFFSET	 0.000000	 0.000000	 0.569914
			CHANNELS 3 Zrotation Xrotation Yrotation
			JOINT LeftFoot
			{
				OFFSET	 0.000000	 0.000000	 0.544423
				CHANNELS 3 Zrotation Xrotation Yrotation
				JOINT LeftToeBase
				{
					OFFSET	 0.000000	 0.000000	 0.207117
					CHANNELS 3 Zrotation Xrotation Yrotation
					End Site
					{
						OFFSET	 0.000000	 0.000000	 0.207117
					}
				}
			}
		}
	}
	JOINT RightUpLeg
	{
		OFFSET	-0.124023	-0.008373	-0.065224
		CHANNELS 3 Zrotation Xrotation Yrotation
		JOINT RightLeg
		{
			OFFSET	 0.000000	 0.000000	 0.570047
			CHANNELS 3 Zrotation Xrotation Yrotation
			JOINT RightFoot
			{
				OFFSET	 0.000000	 0.000000	 0.544354
				CHANNELS 3 Zrotation Xrotation Yrotation
				JOINT RightToeBase
				{
					OFFSET	 0.000000	 0.000000	 0.207540
					CHANNELS 3 Zrotation Xrotation Yrotation
					End Site
					{
						OFFSET	 0.000000	 0.000000	 0.207540
					}
				}
			}
		}
	}
	JOINT Spine
	{
		OFFSET	 0.000184	-0.007763	 0.117403
		CHANNELS 3 Zrotation Xrotation Yrotation
		JOINT Spine1
		{
			OFFSET	 0.000000	 0.000000	 0.137269
			CHANNELS 3 Zrotation Xrotation Yrotation
			JOINT Spine2
			{
				OFFSET	 0.000000	 0.000000	 0.156879
				CHANNELS 3 Zrotation Xrotation Yrotation
				JOINT LeftShoulder
				{
					OFFSET	 0.080501	-0.002496	 0.160144
					CHANNELS 3 Zrotation Xrotation Yrotation
					JOINT LeftArm
					{
						OFFSET	 0.000000	 0.000000	 0.164363
						CHANNELS 3 Zrotation Xrotation Yrotation
						JOINT LeftForeArm
						{
							OFFSET	 0.000000	 0.000000	 0.364576
							CHANNELS 3 Zrotation Xrotation Yrotation
							JOINT LeftHand
							{
								OFFSET	 0.000000	 0.000000	 0.360812
								CHANNELS 3 Zrotation Xrotation Yrotation
								JOINT LeftHandIndex1
								{
									OFFSET	 0.000000	 0.000000	 0.086006
									CHANNELS 3 Zrotation Xrotation Yrotation
									JOINT LeftHandIndex2
									{
										OFFSET	 0.000000	 0.000000	 0.047236
										CHANNELS 3 Zrotation Xrotation Yrotation
										JOINT LeftHandIndex3
										{
											OFFSET	-0.004284	-0.000551	 0.038166
											CHANNELS 3 Zrotation Xrotation Yrotation
											End Site
											{
												OFFSET	-0.004284	-0.000551	 0.038166
											}
										}
									}
								}
							}
						}
					}
				}
				JOINT Neck
				{
					OFFSET	 0.000000	 0.000000	 0.176489
					CHANNELS 3 Zrotation Xrotation Yrotation
					JOINT Head
					{
						OFFSET	 0.000000	-0.001747	 0.077940
						CHANNELS 3 Zrotation Xrotation Yrotation
						End Site
						{
							OFFSET	 0.000000	-0.001747	 0.077940
						}
					}
				}
				JOINT RightShoulder
				{
					OFFSET	-0.080363	 0.000306	 0.159706
					CHANNELS 3 Zrotation Xrotation Yrotation
					JOINT RightArm
					{
						OFFSET	 0.000000	 0.000000	 0.164196
						CHANNELS 3 Zrotation Xrotation Yrotation
						JOINT RightForeArm
						{
							OFFSET	 0.000000	 0.000000	 0.365611
							CHANNELS 3 Zrotation Xrotation Yrotation
							JOINT RightHand
							{
								OFFSET	 0.000000	 0.000000	 0.360648
								CHANNELS 3 Zrotation Xrotation Yrotation
								JOINT RightHandIndex1
								{
									OFFSET	 0.000000	 0.000000	 0.069977
									CHANNELS 3 Zrotation Xrotation Yrotation
									JOINT RightHandIndex2
									{
										OFFSET	 0.000000	 0.000000	 0.052305
										CHANNELS 3 Zrotation Xrotation Yrotation
										JOINT RightHandIndex3
										{
											OFFSET	 0.009002	-0.000782	 0.042196
											CHANNELS 3 Zrotation Xrotation Yrotation
											End Site
											{
												OFFSET	 0.009002	-0.000782	 0.042196
											}
										}
									}
								}
							}
						}
					}
				}
			}
		}
	}
}
MOTION
Frames:    7
Frame Time: 0.03333334
-0.046665	 0.236970	 1.002254	 3.872185	 34.433960	-8.612784	-40.803210	-87.049130	 143.426600	 9.686465	-77.093190	 9.852812	-33.920510	 78.822140	 42.227120	-2.385832	 28.452790	-0.000001	 95.488080	-74.640620	-93.387500	-25.846020	-80.818340	-20.456620	 66.653940	 75.904260	-61.607670	 2.384659	 28.388700	-0.000001	 1.957564	 15.981680	-0.058171	-1.702024	 23.724210	 0.256118	-7.069026	-2.534232	 4.698619	-99.202000	 68.206700	 156.662300	 11.608270	-2.679710	-37.389220	-3.897801	 12.593560	-40.321070	-24.488720	-17.516480	-18.145250	-2.027600	 6.559038	 9.033609	-5.188889	 0.308190	 3.541030	-5.234859	 0.342567	 0.430617	 0.496497	 18.329280	-6.363105	-6.225607	-28.509320	-3.733195	 97.468390	 64.682310	-159.006000	-5.951552	 3.992652	 53.026180	-6.876774	 0.371008	 25.587090	 8.888275	-16.403670	 13.646550	 1.803333	 3.979147	-15.098590	 4.898592	 3.004813	-9.310344	 5.224449	 0.395017	 2.014677
-0.046829	 0.235439	 1.014221	 3.509652	 33.142630	-7.752612	-34.985550	-84.536820	 149.560500	 8.175808	-75.890720	 8.336840	-33.106700	 78.406770	 41.335310	-2.385832	 28.452790	-0.000001	 86.356960	-74.950700	-102.923900	-23.774140	-79.385720	-18.330600	 63.597200	 75.872470	-58.144830	 2.384659	 28.388700	-0.000001	 2.457083	 16.415530	-0.385115	-1.122672	 24.862700	-0.471365	-7.469400	-4.102705	 4.207798	-98.628480	 68.627170	 157.803500	 10.893870	-0.034025	-39.273490	-3.460898	 12.330530	-40.640990	-24.900440	-16.754810	-18.871620	-2.027600	 6.559038	 9.033609	-5.188889	 0.308190	 3.541030	-5.234859	 0.342567	 0.430617	-0.374574	 12.307480	-4.367633	-6.936437	-22.300580	-4.200056	 97.128650	 64.256880	-160.254800	-6.563273	 3.813380	 54.350560	-6.089470	 0.760620	 25.956000	 8.468566	-15.221640	 15.355260	 1.803333	 3.979147	-15.098590	 4.898592	 3.004813	-9.310344	 5.224449	 0.395017	 2.014677
-0.046385	 0.234641	 1.029108	 3.136761	 31.754870	-6.946860	-31.460590	-81.672790	 153.472100	 7.025688	-74.122970	 7.161324	-32.047660	 77.774270	 39.955560	-2.385833	 28.452760	 0.000004	 75.705260	-74.749180	-113.872100	-21.671850	-77.420130	-16.149750	 59.653510	 75.721110	-53.816160	 2.384659	 28.388700	-0.000001	 2.781567	 16.928790	-0.602152	-0.558652	 25.637270	-1.076999	-7.857470	-5.611845	 3.669571	-97.636580	 69.956900	 158.922800	 10.744150	 3.339263	-41.360220	-2.999659	 11.978370	-40.820990	-25.413840	-16.538260	-20.210030	-2.027600	 6.559038	 9.033609	-5.188889	 0.308190	 3.541030	-5.234859	 0.342567	 0.430617	-0.901964	 5.470424	-2.880697	-7.358409	-15.418460	-4.295360	 96.712050	 64.296750	-161.278900	-7.083185	 4.455047	 55.234190	-6.035031	 0.807171	 26.528270	 7.684779	-14.060360	 16.463480	 1.803333	 3.979147	-15.098590	 4.898592	 3.004813	-9.310344	 5.224449	 0.395017	 2.014677
-0.044527	 0.235292	 1.049928	 2.613308	 29.784570	-5.830618	-28.341680	-77.749730	 157.005400	 6.325773	-71.505240	 6.397061	-30.584110	 76.957260	 37.843280	-2.385833	 28.452760	 0.000004	 61.707480	-73.601540	-128.203600	-19.845420	-74.448900	-14.183140	 54.803850	 75.367260	-48.322880	 2.384659	 28.388700	-0.000001	 3.058571	 17.662850	-0.897000	 0.130906	 26.241350	-1.816455	-8.228413	-7.376879	 3.101947	-95.519200	 73.341330	 160.087900	 11.650630	 9.102026	-44.970930	-2.466125	 11.390160	-40.597730	-26.367930	-17.010140	-21.967870	-2.027600	 6.559038	 9.033609	-5.188889	 0.308190	 3.541030	-5.234859	 0.342567	 0.430617	-1.289634	-3.250309	-2.175466	-7.533815	-6.804688	-3.529433	 95.640290	 66.190280	-162.470900	-8.001742	 7.710018	 56.721680	-6.561515	 0.565542	 27.416990	 7.237963	-14.122820	 17.430730	 1.803333	 3.979147	-15.098590	 4.898592	 3.004813	-9.310344	 5.224449	 0.395017	 2.014677
-0.040722	 0.236175	 1.075979	 2.224678	 27.376520	-4.609438	-26.185210	-72.890270	 159.794900	 6.008304	-68.012780	 6.029821	-28.098580	 75.844670	 34.392240	-2.385833	 28.452750	 0.000004	 47.800770	-70.820680	-142.406800	-15.732030	-70.722060	-10.004530	 49.455750	 74.810360	-43.015580	 2.384659	 28.388700	-0.000001	 3.206171	 18.295240	-1.299122	 0.758742	 26.576890	-2.632588	-8.517666	-9.174557	 2.631801	-92.893420	 77.109960	 161.111900	 14.350450	 15.005180	-49.037180	-1.834990	 10.706880	-40.326710	-26.956090	-18.231980	-23.805960	-2.027600	 6.559038	 9.033609	-5.188889	 0.308190	 3.541030	-5.234859	 0.342567	 0.430617	-1.660699	-12.921900	-2.564235	-7.676532	 2.506598	-1.991613	 94.315950	 68.790140	-163.771600	-9.827860	 11.605670	 57.832160	-7.098904	 0.308186	 29.148050	 7.104671	-15.344800	 17.965680	 1.803333	 3.979147	-15.098590	 4.898592	 3.004813	-9.310344	 5.224449	 0.395017	 2.014677
-0.034235	 0.232730	 1.107786	 2.624345	 25.283780	-3.654387	-23.885580	-67.773710	 163.102100	 5.594004	-63.374430	 5.377112	-23.381570	 74.440330	 28.780930	-2.385833	 28.452750	 0.000004	 37.543440	-66.604140	-152.524300	-11.744890	-66.104390	-6.037384	 44.445340	 73.689550	-38.163990	 2.384659	 28.388700	-0.000001	 3.415575	 17.411240	-2.055332	 1.088250	 26.431370	-3.372782	-8.650171	-11.029710	 1.786450	-93.999420	 75.009780	 163.532000	 17.236600	 16.743450	-47.809680	-0.645908	 10.501720	-42.744710	-25.963820	-19.565510	-25.546930	-2.027600	 6.559038	 9.033609	-5.188889	 0.308190	 3.541030	-5.234859	 0.342567	 0.430617	-1.687267	-14.756370	-0.998749	-7.797032	 4.694063	-2.565354	 93.772300	 69.314080	-165.086400	-12.026210	 14.465210	 55.457780	-7.638365	 0.008704	 33.431940	 6.718087	-16.788390	 18.229770	 1.803333	 3.979147	-15.098590	 4.898592	 3.004813	-9.310344	 5.224449	 0.395017	 2.014677
-0.027238	 0.225376	 1.147116	 2.916024	 23.271280	-2.630736	-22.558500	-61.573790	 165.468600	 4.903432	-57.235240	 4.477332	-19.173320	 72.291850	 23.537090	-2.385833	 28.452750	 0.000004	 29.529710	-61.062080	-160.392900	-8.548128	-59.789890	-2.940712	 37.337270	 71.939510	-31.349390	 2.384659	 28.388700	-0.000001	 3.404303	 15.466300	-2.243679	 1.797335	 25.986900	-4.077741	-8.887093	-12.876080	 1.010347	-94.587080	 73.073780	 165.580100	 20.795540	 17.917480	-45.447090	 0.866817	 10.353930	-46.607630	-24.908920	-21.883890	-25.661210	-2.027600	 6.559038	 9.033609	-5.188889	 0.308190	 3.541030	-5.234859	 0.342567	 0.430617	-1.825925	-15.238700	-0.876275	-7.725252	 5.727402	-2.196250	 93.987460	 66.489530	-167.185500	-14.254950	 14.519700	 50.759820	-8.030621	-0.322127	 40.360090	 6.116655	-18.771690	 18.445990	 1.803333	 3.979147	-15.098590	 4.898592	 3.004813	-9.310344	 5.224449	 0.395017	 2.014677
